# xmcd CD database file
#
# Track frame offsets:
#	187
#	19105
#	37067
#	57432
#	78292
#	96160
#	115152
#
# Disc length: 1813 seconds
#
# Revision: 0
# Processed by: cddbd v1.5.1PL2 Copyright (c) Steve Scherf et al.
# Submitted via: CDex 1.51
#
DISCID=53071307
DTITLE=山本実枝 - ファースト
DYEAR=1991
DGENRE=Vocal
TTITLE0=スウィート・ラブ
TTITLE1=SIXTEEN'S REVOLUTION
TTITLE2=ひとりぼっちのヒーローとさみしがりやのヒロイン
TTITLE3=とどかぬ思い
TTITLE4=挑戦者 -チャレンジャー-
TTITLE5=スウィート・ラブ (オリジナル・カラオケ)
TTITLE6=とどかぬ思い (オリジナル・カラオケ)
EXTD=YEAR: 1991
EXTT0=
EXTT1=
EXTT2=
EXTT3=
EXTT4=
EXTT5=
EXTT6=
PLAYORDER=
